<svg width="158" height="24" viewBox="0 0 158 24" fill="none" xmlns="http://www.w3.org/2000/svg">
<g clip-path="url(#clip0_340_17)">
<path d="M46.49 11.8239C46.49 8.46719 43.8995 5.91614 40.245 5.91614C36.5905 5.91614 34 8.44482 34 11.9581C34 15.4714 36.5905 18.0001 40.245 18.0001C42.743 18.0001 45.1022 16.8588 46.0043 14.6435L43.5063 14.2407C42.928 15.0686 41.8178 15.6504 40.4069 15.6504C38.3715 15.6504 37.03 14.4421 36.7755 12.6518H46.4437C46.4669 12.4057 46.49 12.1372 46.49 11.8239ZM40.245 8.15391C41.9103 8.15391 43.1593 9.18328 43.5988 10.6379H36.9375C37.3769 9.13852 38.6259 8.15391 40.245 8.15391Z" fill="black"/>
<path d="M49.9096 17.7762L52.662 13.3678H53.1014L55.6688 17.7762H58.7682L54.9518 11.6671L58.3287 6.13989H55.3913L53.0321 10.0559H52.5926L50.349 6.13989H47.3422L50.7191 11.8238L46.9027 17.7762H49.9096Z" fill="black"/>
<path d="M65.6151 18.0001C69.3852 18.0001 72.0451 15.4938 72.0451 11.9581C72.0451 8.42244 69.3852 5.91614 65.6151 5.91614C61.845 5.91614 59.1851 8.42244 59.1851 11.9581C59.1851 15.4938 61.845 18.0001 65.6151 18.0001ZM65.6151 15.6504C63.4409 15.6504 61.9606 14.1511 61.9606 11.9581C61.9606 9.7651 63.4409 8.26579 65.6151 8.26579C67.7893 8.26579 69.2696 9.7651 69.2696 11.9581C69.2696 14.1511 67.7893 15.6504 65.6151 15.6504Z" fill="black"/>
<path d="M79.5386 18C81.7359 18 83.2625 16.8811 84.0951 15.8965L84.6502 17.7762H86.6394V2H83.9795V7.90769C83.1468 6.94545 81.6434 5.91608 79.5386 5.91608C76.0923 5.91608 73.6637 8.44476 73.6637 11.958C73.6637 15.4713 76.0923 18 79.5386 18ZM80.1862 15.6951C77.9658 15.6951 76.4392 14.151 76.4392 11.958C76.4392 9.76504 77.9658 8.22098 80.1862 8.22098C82.4298 8.22098 83.9795 9.76504 83.9795 11.958C83.9795 14.151 82.4298 15.6951 80.1862 15.6951Z" fill="black"/>
<path d="M101.558 11.8239C101.558 8.46719 98.9678 5.91614 95.3133 5.91614C91.6589 5.91614 89.0684 8.44482 89.0684 11.9581C89.0684 15.4714 91.6589 18.0001 95.3133 18.0001C97.8113 18.0001 100.171 16.8588 101.073 14.6435L98.5746 14.2407C97.9964 15.0686 96.8862 15.6504 95.4753 15.6504C93.4398 15.6504 92.0983 14.4421 91.8439 12.6518H101.512C101.535 12.4057 101.558 12.1372 101.558 11.8239ZM95.3133 8.15391C96.9787 8.15391 98.2277 9.18328 98.6671 10.6379H92.0058C92.4453 9.13852 93.6943 8.15391 95.3133 8.15391Z" fill="black"/>
<mask id="mask0_340_17" style="mask-type:luminance" maskUnits="userSpaceOnUse" x="0" y="0" width="24" height="24">
<path d="M24 0H0V24H24V0Z" fill="white"/>
</mask>
<g mask="url(#mask0_340_17)">
<path d="M16.3594 0H7.64062C3.42083 0 0 3.42083 0 7.64062V16.3594C0 20.5792 3.42083 24 7.64062 24H16.3594C20.5792 24 24 20.5792 24 16.3594V7.64062C24 3.42083 20.5792 0 16.3594 0Z" fill="#201F25"/>
<path d="M17.5957 12.4872C17.5957 12.6278 17.5957 12.7117 17.5957 12.7942C17.5957 13.3492 17.5811 13.9037 17.5957 14.4583C17.6069 14.9552 17.4349 15.3372 16.9966 15.5922C16.1669 16.0755 15.3429 16.5677 14.5122 17.0477C13.8836 17.4105 13.2438 17.7541 12.6157 18.1173C12.198 18.3592 11.801 18.3644 11.3777 18.1202C9.93673 17.2902 8.49218 16.4669 7.04403 15.6503C6.60949 15.4066 6.41637 15.0742 6.42199 14.5675C6.44074 12.9198 6.42903 11.2712 6.42949 9.62312C6.42949 9.5214 6.43606 9.42015 6.43512 9.31843C6.43512 8.96593 6.58465 8.71328 6.89496 8.53656C7.76356 8.04203 8.62512 7.53625 9.49048 7.03609C10.1594 6.64937 10.8335 6.27062 11.4982 5.8764C11.8422 5.67203 12.1722 5.665 12.5158 5.86328C14.0158 6.72906 15.5219 7.58781 17.0182 8.46109C17.5155 8.75125 17.7429 9.4239 17.5108 9.95453C17.4311 10.1369 17.2408 10.2977 17.0632 10.405C16.0061 11.0402 14.9402 11.6608 13.8724 12.28C12.8439 12.8734 11.8127 13.4566 10.7847 14.0491C10.5972 14.1583 10.4219 14.2919 10.2372 14.4086C10.1055 14.492 10.0966 14.5694 10.2344 14.6491C10.7732 14.9647 11.3119 15.2794 11.8507 15.5931C11.9988 15.6798 12.1319 15.6362 12.2674 15.5566C13.9624 14.5741 15.6581 13.5933 17.3547 12.6142C17.4143 12.58 17.4761 12.55 17.5957 12.4872ZM8.82481 11.2525H8.82153C8.82153 11.5487 8.82153 11.845 8.82153 12.1431C8.82153 12.3227 8.87965 12.3695 9.04704 12.272C10.5836 11.3802 12.1213 10.4896 13.66 9.60015C13.8672 9.48015 13.8733 9.42484 13.6886 9.3189C13.1875 9.03437 12.6883 8.74515 12.1783 8.47515C12.1246 8.45153 12.0666 8.43962 12.008 8.44028C11.9493 8.44093 11.8915 8.45411 11.8385 8.4789C10.8888 9.0189 9.94892 9.5739 9.00017 10.1153C8.94064 10.1428 8.89128 10.1884 8.85903 10.2455C8.82682 10.3026 8.81337 10.3684 8.82059 10.4336C8.83043 10.7064 8.82481 10.9792 8.82481 11.2525Z" fill="white"/>
</g>
</g>
<path d="M116.15 15.7L115.92 18H113.689C112.386 18 111.397 17.6933 110.722 17.08C110.048 16.4513 109.71 15.5467 109.71 14.366V8.34H107.755V6.04H109.71L110.377 2.59H112.355V6.04H115.92V8.34H112.355V14.366C112.355 15.2553 112.8 15.7 113.689 15.7H116.15ZM129.735 11.882C129.735 12.112 129.719 12.3957 129.689 12.733H120.075C120.197 13.6683 120.581 14.4197 121.225 14.987C121.869 15.539 122.689 15.815 123.686 15.815C124.36 15.815 124.966 15.6847 125.503 15.424C126.055 15.1633 126.476 14.8107 126.768 14.366L129.252 14.78C128.822 15.884 128.079 16.735 127.021 17.333C125.978 17.931 124.813 18.23 123.525 18.23C122.329 18.23 121.255 17.9693 120.305 17.448C119.369 16.9113 118.633 16.1753 118.097 15.24C117.575 14.2893 117.315 13.216 117.315 12.02C117.315 10.824 117.575 9.75833 118.097 8.823C118.633 7.87233 119.369 7.13633 120.305 6.615C121.255 6.07833 122.329 5.81 123.525 5.81C124.721 5.81 125.786 6.07833 126.722 6.615C127.672 7.13633 128.408 7.86467 128.93 8.8C129.466 9.72 129.735 10.7473 129.735 11.882ZM123.525 8.11C122.727 8.11 122.03 8.34 121.432 8.8C120.849 9.26 120.45 9.881 120.236 10.663H126.86C126.63 9.89633 126.216 9.283 125.618 8.823C125.035 8.34767 124.337 8.11 123.525 8.11ZM137.339 18.23C136.143 18.23 135.069 17.9693 134.119 17.448C133.168 16.9113 132.424 16.1753 131.888 15.24C131.366 14.2893 131.106 13.216 131.106 12.02C131.106 10.824 131.366 9.75833 131.888 8.823C132.424 7.87233 133.168 7.13633 134.119 6.615C135.069 6.07833 136.143 5.81 137.339 5.81C138.657 5.81 139.823 6.13967 140.835 6.799C141.862 7.443 142.59 8.363 143.02 9.559L140.536 9.973C140.275 9.45167 139.869 9.03 139.317 8.708C138.78 8.386 138.174 8.225 137.5 8.225C136.426 8.225 135.552 8.57767 134.878 9.283C134.203 9.98833 133.866 10.9007 133.866 12.02C133.866 13.1393 134.203 14.0517 134.878 14.757C135.552 15.4623 136.426 15.815 137.5 15.815C138.205 15.815 138.834 15.654 139.386 15.332C139.938 14.9947 140.352 14.5577 140.628 14.021L143.112 14.435C142.682 15.6463 141.939 16.5817 140.881 17.241C139.823 17.9003 138.642 18.23 137.339 18.23ZM145.073 18V1.785H147.718V7.604C148.101 7.03667 148.6 6.59967 149.213 6.293C149.826 5.971 150.478 5.81 151.168 5.81C152.027 5.81 152.801 6.02467 153.491 6.454C154.181 6.88333 154.725 7.47367 155.124 8.225C155.523 8.97633 155.722 9.82733 155.722 10.778V18H153.077V11.077C153.077 10.2183 152.832 9.52067 152.341 8.984C151.85 8.44733 151.222 8.179 150.455 8.179C149.658 8.179 148.998 8.455 148.477 9.007C147.971 9.54367 147.718 10.2337 147.718 11.077V18H145.073Z" fill="#0E32CF"/>
<defs>
<clipPath id="clip0_340_17">
<rect width="102" height="24" fill="white"/>
</clipPath>
</defs>
</svg>
